<svg version="1.1" viewBox="0 0 2000 2000" className='w40 h40' xmlns="http://www.w3.org/2000/svg">
    <path transform="translate(795,561)"
        d="m0 0h18l16 2 18 4 25 10 14 8 14 10 12 11 11 12 14 21 12 19 30 48 13 20 13 21 14 22 26 42 14 22 12 19 14 22 9 13v2l3-1 8-13 11-17 12-19 12-20 15-23 11-18 9-14 11-18 12-19 10-16 24-38 25-40 8-11 9-11 15-15 15-11 18-10 15-6 12-4 17-3 12-1h13l18 2 20 5 20 8 16 9 14 10 10 9 7 6 11 14 9 15 8 17 6 20 3 17 1 9v23l-3 21-6 21-8 19-12 22-15 25-17 28-10 16-13 21-15 24-12 19-14 23-9 14-10 16-15 23-14 22-16 24-11 18-16 25-15 23-12 20-22 34-15 24-32 48-13 18-10 13-9 11-11 13-12 13-24 24-11 9-8 7-15 11-15 10-15 9-29 15-19 9-27 11-36 12-24 7-29 7-31 5-18 2-18 1h-54l-24-2-44-6-23-5-25-7-29-10-23-10-19-9-18-10-21-14-10-8-10-9-10-11-11-16-8-16-7-18-5-21-2-19 1-19 4-23 6-18 10-20 12-17 12-13 13-12 13-9 14-8 17-7 19-5 18-3h25l19 3 21 7 25 12 16 8 15 6 19 5 23 3h34l24-3 19-5 12-6h2l-1-6-9-15-13-21-16-25-10-15-13-21-16-26-14-22-36-57-15-24-36-57-15-23-15-25-11-18-11-21-8-23-4-25v-23l3-21 6-20 5-12 8-15 9-13 8-10 10-10 14-11 14-9 15-7 17-6 21-4z"
        fill="#02AAF0" />
    <path transform="translate(644,1117)"
        d="m0 0h25l19 3 21 7 25 12 16 8 15 6 19 5 23 3h34l24-3 19-5 11-5 5 1 5 10 7 10 9 16 7 14 8 23 4 16 2 19v32l-4 22-7 23-7 16-9 16-8 12-5 7h-2l-2 4-4 5h-2l-2 4-11 11-6 5h-2v2l-17 12-14 9-18 8-25 7-16 3-13 3h-14l-33-5-22-5-27-8-28-10-20-9-17-8-18-10-21-14-10-8-10-9-10-11-11-16-8-16-7-18-5-21-2-19 1-19 4-23 6-18 10-20 12-17 12-13 13-12 13-9 14-8 17-7 19-5z"
        fill="#0273AB" />
    <path transform="translate(1388,979)"
        d="m0 0h2l2 6 1 4-10 16-10 15-12 19-16 24-11 18-16 25-15 23-12 20-22 34-15 24-32 48-13 18-10 13-4 5h-3v-9l4-7 5-8 3-5 8-8 3-6 7-8v-5l5-5h2l2-6 4-6 4-8 5-4 5-9 4-6 4-9 10-19 7-11 3-7 2-1v-2h2l2-5 6-9 10-16 9-15 10-14 7-9 8-11 4-4 7-16 7-12 9-14 9-11 6-7v-2h2l2-4 3-5 5-7z"
        fill="#049EDE" />
    <path transform="translate(898,1145)"
        d="m0 0 4 2 8 12 8 13 13 23 7 17 5 15 3 13 2 18v30l-4 18-4 15-6 18-7 15-8 14-7 11-7 10h-2l-2 4-10 11-5 5-13 12-10 7-21 13-9 4-10 6-8 4h-4v2l-16 3-1 1h-16l-16-2v-1l17-3 13-3 19-5 16-5 16-8 21-14 5-4h2v-2l11-9 9-9 7-8 6-7 13-20 10-19 6-17 5-18 3-18v-32l-2-19-6-22-7-20-12-22-9-14-5-8-1-3-3-2h2z"
        fill="#049EDE" />
    <path transform="translate(1438,900)"
        d="m0 0h6l2 4-11 18-12 19-14 23-9 14-4 4-4-2v-2h-2l2-8 6-12 2-3h2l2-5 4-8 6-9 10-17 6-8h2v-2h2v-2h2z"
        fill="#049EDE" />
    <path transform="translate(1473,847)"
        d="m0 0 6 2-2 5-12 20-8 13h-2l-1-4-4-1 2-5 1-2h2l1-5 8-11 4-2 1-5 2-4z" fill="#049EDF" />
    <path transform="translate(1145,1339)" d="m0 0h3l-1 4-8 7-3-1-1-3 3-5z" fill="#049FDF" />
    <path transform="translate(703,600)" d="m0 0 4 1-2 1-2 4-6 5-3 3h-3l2-4z" fill="#04A1E3" />
    <path transform="translate(1484,828)" d="m0 0 4 2-4 4h-2l1 5-2 3h-2l-1-4z" fill="#059EDE" />
    <path transform="translate(1285,600)" d="m0 0h2v2l-5 5h-2l-1 3-4 2 2-4z" fill="#049FE0" />
</svg>